<svg xmlns="http://www.w3.org/2000/svg" xmlns:xlink="http://www.w3.org/1999/xlink" width="500" zoomAndPan="magnify" viewBox="0 0 375 374.999991" height="500" preserveAspectRatio="xMidYMid meet" version="1.0"><defs><g/><clipPath id="b55f34bfd3"><rect x="0" width="287" y="0" height="375"/></clipPath></defs><g transform="matrix(1, 0, 0, 1, 46, 0)"><g clip-path="url(#b55f34bfd3)"><g fill="#ffbd59" fill-opacity="1"><g transform="translate(0.571863, 350.351269)"><g><path d="M 146.140625 0 L 28.84375 0 L 29.328125 -4.8125 L 35.09375 -4.8125 C 43.425781 -4.8125 50.554688 -7.691406 56.484375 -13.453125 C 62.410156 -19.222656 65.535156 -26.273438 65.859375 -34.609375 L 65.859375 -301.90625 C 65.859375 -310.238281 62.8125 -317.285156 56.71875 -323.046875 C 50.632812 -328.816406 43.425781 -331.703125 35.09375 -331.703125 L 29.328125 -331.703125 L 28.84375 -336.515625 L 124.515625 -336.515625 C 157.523438 -336.515625 183.160156 -329.222656 201.421875 -314.640625 C 219.691406 -300.054688 228.828125 -280.585938 228.828125 -256.234375 C 228.828125 -237.003906 223.695312 -221.054688 213.4375 -208.390625 C 203.1875 -195.734375 190.691406 -187.320312 175.953125 -183.15625 C 201.265625 -179.3125 221.289062 -168.894531 236.03125 -151.90625 C 250.78125 -134.925781 258.15625 -113.535156 258.15625 -87.734375 C 258.15625 -61.929688 248.300781 -40.859375 228.59375 -24.515625 C 208.882812 -8.171875 181.398438 0 146.140625 0 Z M 97.109375 -17.3125 L 144.21875 -17.3125 C 144.539062 -17.3125 144.863281 -17.3125 145.1875 -17.3125 C 169.539062 -17.3125 188.445312 -23.957031 201.90625 -37.25 C 215.363281 -50.550781 222.09375 -69.382812 222.09375 -93.75 C 222.09375 -107.53125 219.769531 -119.625 215.125 -130.03125 C 210.476562 -140.445312 204.628906 -148.703125 197.578125 -154.796875 C 178.992188 -170.179688 151.113281 -177.875 113.9375 -177.875 C 113.9375 -177.875 113.773438 -177.875 113.453125 -177.875 L 113.453125 -182.203125 C 113.773438 -182.203125 115.296875 -182.203125 118.015625 -182.203125 C 120.742188 -182.203125 124.671875 -182.519531 129.796875 -183.15625 C 134.921875 -183.800781 140.6875 -184.921875 147.09375 -186.515625 C 153.507812 -188.117188 159.28125 -190.679688 164.40625 -194.203125 C 169.539062 -197.734375 174.347656 -201.90625 178.828125 -206.71875 C 188.128906 -217.289062 192.78125 -233.070312 192.78125 -254.0625 C 192.78125 -275.0625 186.769531 -291.488281 174.75 -303.34375 C 162.726562 -315.195312 145.34375 -321.125 122.59375 -321.125 L 97.109375 -321.125 Z M 97.109375 -17.3125 "/></g></g></g></g></g></svg>