<?xml version="1.0" encoding="UTF-8"?>
<svg version="1.1" xmlns="http://www.w3.org/2000/svg" width="185" height="140">
<path d="M0 0 C3.25601751 8.85776805 3.25601751 8.85776805 2.1875 13.625 C1.795625 14.40875 1.40375 15.1925 1 16 C3.91517292 14.92598892 5.77810176 14.22189824 8 12 C10 14 10 14 10.125 16.625 C10.08375 17.40875 10.0425 18.1925 10 19 C10.99 19 11.98 19 13 19 C13 20.65 13 22.3 13 24 C13.66 24 14.32 24 15 24 C15 24.66 15 25.32 15 26 C16.051875 25.79375 17.10375 25.5875 18.1875 25.375 C21.99624887 25.00036896 23.66835752 25.28369933 27 27 C27.125 29.375 27.125 29.375 27 32 C26.01 32.99 26.01 32.99 25 34 C25.34444881 36.47266765 25.34444881 36.47266765 26 39 C26 40.66666667 26 42.33333333 26 44 C26.99 44.66 27.98 45.32 29 46 C29 46.66 29 47.32 29 48 C30.1446875 48.185625 30.1446875 48.185625 31.3125 48.375 C34 49 34 49 37 51 C37.6875 53.125 37.6875 53.125 38 55 C32.25 57 32.25 57 30 57 C30.2165625 58.30324219 30.2165625 58.30324219 30.4375 59.6328125 C30.623125 60.78523438 30.80875 61.93765625 31 63.125 C31.185625 64.26195313 31.37125 65.39890625 31.5625 66.5703125 C31.96956049 69.76137602 32.07809902 72.78817791 32 76 C30.68 75.67 29.36 75.34 28 75 C28 76.98 28 78.96 28 81 C27.34 80.67 26.68 80.34 26 80 C26 81.98 26 83.96 26 86 C25.01 85.67 24.02 85.34 23 85 C22.566875 84.0409375 22.566875 84.0409375 22.125 83.0625 C20.60701391 80.27952551 18.90781761 80.04383196 16 79 C15.67 78.34 15.34 77.68 15 77 C15 78.32 15 79.64 15 81 C15 82.66666667 15 84.33333333 15 86 C13 86 11 86 9 86 C9 86.66 9 87.32 9 88 C9.66 88.33 10.32 88.66 11 89 C9.02 89.99 9.02 89.99 7 91 C7.33 91.556875 7.66 92.11375 8 92.6875 C9.13477525 95.31166778 9.07503586 97.17208611 9 100 C8.33613281 99.9071875 7.67226562 99.814375 6.98828125 99.71875 C4.14614951 99.48640054 1.79837558 99.41790338 -1 100 C-2.72448692 101.92230836 -3.70485083 103.84861749 -4.87109375 106.14453125 C-6 108 -6 108 -8.8125 109.125 C-13.60916671 108.93689542 -18.1891167 108.47134268 -22 105.375 C-22.495 104.694375 -22.495 104.694375 -23 104 C-19.62214778 101.78026854 -16.93534461 100.7652059 -13 100 C-12.67 99.34 -12.34 98.68 -12 98 C-17.40976177 97.71019133 -21.17893689 98.1794815 -26.16796875 100.265625 C-28.40285293 101.16148476 -30.62552561 101.62898838 -33 102 C-33.33 101.34 -33.66 100.68 -34 100 C-34.60328125 100.28875 -35.2065625 100.5775 -35.828125 100.875 C-36.62734375 101.24625 -37.4265625 101.6175 -38.25 102 C-39.03890625 102.37125 -39.8278125 102.7425 -40.640625 103.125 C-43 104 -43 104 -47 104 C-47.99 104.66 -48.98 105.32 -50 106 C-53.76049972 106.13976306 -57.47777448 105.99473753 -61.23828125 105.875 C-64.91919639 105.99731494 -67.59740861 106.64951411 -71 108 C-71 108.66 -71 109.32 -71 110 C-72.65 110 -74.3 110 -76 110 C-76.33 110.66 -76.66 111.32 -77 112 C-77 111.34 -77 110.68 -77 110 C-79.97 111.32 -82.94 112.64 -86 114 C-86.33 113.34 -86.66 112.68 -87 112 C-90.88701855 110.05649073 -94.71093278 109.50459614 -99 109 C-99 108.67 -99 108.34 -99 108 C-95.04 107.01 -95.04 107.01 -91 106 C-92.32 105.67 -93.64 105.34 -95 105 C-92.69047195 102.33286761 -90.73666732 101.37145513 -87.375 100.375 C-84.42560369 99.63985856 -84.42560369 99.63985856 -82 98 C-82.80824219 98.09539062 -83.61648437 98.19078125 -84.44921875 98.2890625 C-85.51785156 98.39992188 -86.58648437 98.51078125 -87.6875 98.625 C-88.74324219 98.74101563 -89.79898438 98.85703125 -90.88671875 98.9765625 C-94.13716346 99.0010326 -96.10230796 98.40852563 -99 97 C-99 96.67 -99 96.34 -99 96 C-95.37 96.33 -91.74 96.66 -88 97 C-88 95.35 -88 93.7 -88 92 C-88.66 92.99 -89.32 93.98 -90 95 C-94 95 -94 95 -95.75 93.5 C-96.1625 93.005 -96.575 92.51 -97 92 C-97.99 92.66 -98.98 93.32 -100 94 C-103.4984916 96.33232773 -104.65242284 97 -109 97 C-109.268125 96.030625 -109.53625 95.06125 -109.8125 94.0625 C-110.204375 93.051875 -110.59625 92.04125 -111 91 C-112.485 90.505 -112.485 90.505 -114 90 C-116.5536576 86.89913006 -117.02246464 85.43431629 -116.8125 81.375 C-116 78 -116 78 -114 75 C-113.29835358 73.01200182 -112.62627128 71.01301483 -112 69 C-110.515 69.495 -110.515 69.495 -109 70 C-109.495 69.01 -109.495 69.01 -110 68 C-113.33262917 68.38087191 -114.86859511 68.89159096 -117.5 71.0625 C-120.32466501 73.25161538 -121.52512531 73.39712854 -125 73 C-125 73.66 -125 74.32 -125 75 C-125.99 74.67 -126.98 74.34 -128 74 C-128.02698189 72.37509046 -128.04638757 70.75005367 -128.0625 69.125 C-128.07410156 68.22007813 -128.08570313 67.31515625 -128.09765625 66.3828125 C-128 64 -128 64 -127 62 C-127.89363605 59.39068734 -127.89363605 59.39068734 -129 57 C-129.66 57 -130.32 57 -131 57 C-131.12375 56.401875 -131.2475 55.80375 -131.375 55.1875 C-131.95475985 52.73768652 -131.95475985 52.73768652 -134 50 C-129.49330085 49.63459196 -129.49330085 49.63459196 -127.3125 51.25 C-126 53 -126 53 -125.20703125 54.96875 C-123.64072181 57.60461054 -122.19128274 58.12348691 -119.375 59.25 C-118.55773437 59.58515625 -117.74046875 59.9203125 -116.8984375 60.265625 C-116.27195312 60.50796875 -115.64546875 60.7503125 -115 61 C-115.87719868 58.66080352 -116.78310477 56.39435497 -117.98828125 54.203125 C-120.67299792 49.32182196 -122.31853146 44.64862448 -122 39 C-121.0078125 36.734375 -121.0078125 36.734375 -120 35 C-119.01 35.33 -118.02 35.66 -117 36 C-117.33 37.32 -117.66 38.64 -118 40 C-116.02 39.505 -116.02 39.505 -114 39 C-113.87625 38.2575 -113.7525 37.515 -113.625 36.75 C-113.03438237 34.15128245 -112.43713552 32.23554414 -111 30 C-110.01 29.67 -109.02 29.34 -108 29 C-107.34 29.33 -106.68 29.66 -106 30 C-105.34 29.34 -104.68 28.68 -104 28 C-102.15234375 28.09375 -102.15234375 28.09375 -99.9375 28.5 C-94.88082484 29.19915444 -90.87720394 28.2786677 -86 27 C-84.00291344 26.64963394 -82.00401011 26.30830925 -80 26 C-80 26.66 -80 27.32 -80 28 C-80.99 28.495 -80.99 28.495 -82 29 C-81.27554688 28.96519531 -80.55109375 28.93039063 -79.8046875 28.89453125 C-74.0394837 28.73310554 -70.00794621 28.78977807 -65 32 C-63.05750404 33.2113134 -63.05750404 33.2113134 -60.9375 32.6875 C-58.80201271 32.1818424 -58.80201271 32.1818424 -58 30 C-60.97 30 -63.94 30 -67 30 C-67 27 -67 27 -66 25 C-64.88625 24.690625 -63.7725 24.38125 -62.625 24.0625 C-59.11805743 23.35799844 -59.11805743 23.35799844 -57.60546875 21.5625 C-55.4970818 19.5105419 -53.46149525 18.88518579 -50.6875 17.9375 C-49.70265625 17.59847656 -48.7178125 17.25945313 -47.703125 16.91015625 C-46.81109375 16.60980469 -45.9190625 16.30945313 -45 16 C-43.989375 15.62875 -42.97875 15.2575 -41.9375 14.875 C-39.31640577 14.09424853 -36.81321783 13.59819161 -34.125 13.125 C-29.18845798 12.19752847 -25.37933357 10.4329631 -21 8 C-21 7.01 -21 6.02 -21 5 C-19.27398621 4.18082358 -17.5440353 3.36993984 -15.8125 2.5625 C-14.84957031 2.11003906 -13.88664062 1.65757813 -12.89453125 1.19140625 C-8.18196002 -0.74831605 -4.96884323 -1.27770254 0 0 Z M-13 5 C-13.99 5.66 -14.98 6.32 -16 7 C-14.35 6.67 -12.7 6.34 -11 6 C-11.66 5.67 -12.32 5.34 -13 5 Z M-83 34 C-82.1955029 36.16263073 -82.1955029 36.16263073 -80.125 36.75 C-77.69990757 37.26802406 -77.69990757 37.26802406 -75 35 C-75.33 34.01 -75.66 33.02 -76 32 C-78.6465335 32 -80.5808163 32.98139634 -83 34 Z M22 74 C22.33 75.65 22.66 77.3 23 79 C23.66 79 24.32 79 25 79 C24.67 77.35 24.34 75.7 24 74 C23.34 74 22.68 74 22 74 Z " fill="#FF5435" transform="translate(138,7)"/>
<path d="M0 0 C0 0.66 0 1.32 0 2 C-0.99 2.495 -0.99 2.495 -2 3 C-1.24074219 2.96519531 -0.48148438 2.93039063 0.30078125 2.89453125 C1.79158203 2.85392578 1.79158203 2.85392578 3.3125 2.8125 C4.79169922 2.76029297 4.79169922 2.76029297 6.30078125 2.70703125 C9 3 9 3 10.85546875 4.51171875 C11.23316406 5.00285156 11.61085938 5.49398437 12 6 C11.05125 5.938125 10.1025 5.87625 9.125 5.8125 C7.578125 5.9053125 7.578125 5.9053125 6 6 C5.01 7.485 5.01 7.485 4 9 C4 8.01 4 7.02 4 6 C2.35 6.33 0.7 6.66 -1 7 C-1 6.34 -1 5.68 -1 5 C-1.78375 4.87625 -2.5675 4.7525 -3.375 4.625 C-6 4 -6 4 -8 2 C-4.91190305 0.23537317 -3.76687864 0 0 0 Z " fill="#FF4C29" transform="translate(58,33)"/>
<path d="M0 0 C-0.33 0.33 -0.66 0.66 -1 1 C-0.34 1.66 0.32 2.32 1 3 C0.67 3.66 0.34 4.32 0 5 C-0.99 4.67 -1.98 4.34 -3 4 C-5.29453495 4.09406754 -5.29453495 4.09406754 -7.6875 4.4375 C-8.49574219 4.53933594 -9.30398437 4.64117188 -10.13671875 4.74609375 C-11.05904297 4.87177734 -11.05904297 4.87177734 -12 5 C-9.90360036 1.85540054 -9.3559026 1.45911196 -6 0.25 C-5.29875 -0.01296875 -4.5975 -0.2759375 -3.875 -0.546875 C-2 -1 -2 -1 0 0 Z " fill="#FF4C29" transform="translate(128,9)"/>
<path d="M0 0 C1.32 0 2.64 0 4 0 C4 0.99 4 1.98 4 3 C4.66 3 5.32 3 6 3 C6.33 5.31 6.66 7.62 7 10 C4 9 4 9 2.9375 7 C2.628125 6.34 2.31875 5.68 2 5 C1.34 4.67 0.68 4.34 0 4 C0 2.68 0 1.36 0 0 Z " fill="#FF4A27" transform="translate(157,83)"/>
<path d="M0 0 C0.33 1.65 0.66 3.3 1 5 C-0.65 5.33 -2.3 5.66 -4 6 C-4.33 4.35 -4.66 2.7 -5 1 C-6.65 1 -8.3 1 -10 1 C-10 0.67 -10 0.34 -10 0 C-6.30458414 -0.95024979 -3.69541586 -0.95024979 0 0 Z " fill="#FF4C2B" transform="translate(138,7)"/>
<path d="M0 0 C2.31 0.33 4.62 0.66 7 1 C6.01 1.495 6.01 1.495 5 2 C5 3.98 5 5.96 5 8 C1.39345961 5.59563974 1.14547068 4.05320393 0 0 Z " fill="#FF4925" transform="translate(161,80)"/>
<path d="M0 0 C0.33 0.99 0.66 1.98 1 3 C-3.71599818 3.92470553 -6.67265609 4.22923777 -11 2 C-11 1.67 -11 1.34 -11 1 C-7.37 1.33 -3.74 1.66 0 2 C0 1.34 0 0.68 0 0 Z " fill="#FF4A27" transform="translate(50,102)"/>
<path d="M0 0 C2.3125 -0.25 2.3125 -0.25 5 0 C6.8125 2 6.8125 2 8 4 C7.34 4 6.68 4 6 4 C6 4.66 6 5.32 6 6 C5.01 6.33 4.02 6.66 3 7 C2.87625 6.401875 2.7525 5.80375 2.625 5.1875 C2.04524015 2.73768652 2.04524015 2.73768652 0 0 Z " fill="#FF4B28" transform="translate(4,57)"/>
<path d="M0 0 C0.99 0.33 1.98 0.66 3 1 C3 2.65 3 4.3 3 6 C2.01 6 1.02 6 0 6 C-0.66 5.34 -1.32 4.68 -2 4 C-1.34 4 -0.68 4 0 4 C0 2.68 0 1.36 0 0 Z " fill="#FF4D2B" transform="translate(150,87)"/>
</svg>
