<?xml version="1.0" encoding="UTF-8"?>
<svg version="1.1" xmlns="http://www.w3.org/2000/svg" width="185" height="140">
<path d="M0 0 C2.81145931 4.36516051 4.30587518 8.52160331 3.25 13.625 C2.8375 14.40875 2.425 15.1925 2 16 C3.1446875 15.5359375 3.1446875 15.5359375 4.3125 15.0625 C6.18789677 14.32106407 8.08684652 13.63771783 10 13 C11 14 11 14 11.0625 16.5625 C11.041875 17.366875 11.02125 18.17125 11 19 C11.99 19 12.98 19 14 19 C14 20.65 14 22.3 14 24 C14.66 24 15.32 24 16 24 C16 24.66 16 25.32 16 26 C16.86625 25.79375 17.7325 25.5875 18.625 25.375 C22.36428602 24.95952378 24.54942141 25.60333724 28 27 C27.649375 28.051875 27.29875 29.10375 26.9375 30.1875 C26.05029473 33.7954681 25.94737118 35.52632489 27 39 C26.34 39 25.68 39 25 39 C26.36205262 43.45762676 28.16976887 45.38847877 32 48 C33.0725 48.495 34.145 48.99 35.25 49.5 C38 51 38 51 38.875 53.1875 C38.91625 53.785625 38.9575 54.38375 39 55 C36.69 55.66 34.38 56.32 32 57 C32.33 63.27 32.66 69.54 33 76 C32.67 75.34 32.34 74.68 32 74 C29.48916886 75.25541557 29.12874554 76.50063488 28 79 C27.34 79 26.68 79 26 79 C26.33 81.31 26.66 83.62 27 86 C26.34 86 25.68 86 25 86 C22 81.61538462 22 81.61538462 22 79 C20.68 79.33 19.36 79.66 18 80 C17.67 78.68 17.34 77.36 17 76 C16.34 76 15.68 76 15 76 C15.33 79.3 15.66 82.6 16 86 C14 86 12 86 10 86 C10 86.66 10 87.32 10 88 C10.66 88.33 11.32 88.66 12 89 C11.360625 89.433125 10.72125 89.86625 10.0625 90.3125 C7.73253997 91.91239177 7.73253997 91.91239177 7 95 C7.99 95 8.98 95 10 95 C10 96.65 10 98.3 10 100 C7.36 100 4.72 100 2 100 C2 99.34 2 98.68 2 98 C1.01 98 0.02 98 -1 98 C-1.061875 98.886875 -1.12375 99.77375 -1.1875 100.6875 C-2.23571547 104.96099384 -3.37077541 106.50490809 -7 109 C-12.55995803 109.50172734 -17.2377851 107.80848571 -22 105 C-18.4912812 101.90407165 -15.50802601 100.25805377 -11 99 C-16.91297633 97.81740473 -20.36928659 98.22726061 -25.96875 100.375 C-28.57888841 101.17811951 -30.37041391 100.56855915 -33 100 C-33.9075 100.474375 -34.815 100.94875 -35.75 101.4375 C-39.96323061 103.46309164 -43.41189505 103.2752863 -48 103 C-48 103.66 -48 104.32 -48 105 C-51.74303963 106.87151982 -56.30860325 106.00751314 -60.421875 105.9375 C-63.73217938 105.99532191 -66.75715807 106.36336846 -70 107 C-70 107.99 -70 108.98 -70 110 C-71.2375 110.12375 -72.475 110.2475 -73.75 110.375 C-76.2949299 110.67967471 -77.93780713 110.96890357 -80.25 112.125 C-82 113 -82 113 -84.0625 112.6875 C-84.701875 112.460625 -85.34125 112.23375 -86 112 C-86.99 111.67 -87.98 111.34 -89 111 C-89 110.34 -89 109.68 -89 109 C-90.98 109.495 -90.98 109.495 -93 110 C-93.33 109.34 -93.66 108.68 -94 108 C-92.02 107.01 -92.02 107.01 -90 106 C-90.99 106 -91.98 106 -93 106 C-93 105.01 -93 104.02 -93 103 C-88.38 101.35 -83.76 99.7 -79 98 C-82.6954466 98 -86.37958167 98.51320162 -90.0546875 98.87890625 C-92.6801702 98.9868505 -94.52622736 98.80666499 -97 98 C-97 97.34 -97 96.68 -97 96 C-93.7 96 -90.4 96 -87 96 C-87.33 94.68 -87.66 93.36 -88 92 C-88.495 93.485 -88.495 93.485 -89 95 C-93 95 -93 95 -94.75 93.5 C-95.1625 93.005 -95.575 92.51 -96 92 C-96.99 92.66 -97.98 93.32 -99 94 C-104.53846154 97 -104.53846154 97 -108 97 C-108 95.68 -108 94.36 -108 93 C-108.66 93 -109.32 93 -110 93 C-110 92.34 -110 91.68 -110 91 C-111.485 90.505 -111.485 90.505 -113 90 C-115.12941757 86.72982302 -116.02903122 84.74029601 -115.875 80.8125 C-114.9490575 77.83625625 -114.12213338 77.12213338 -112 75 C-111.2730774 71.89160979 -111.2730774 71.89160979 -111 69 C-109.515 69.495 -109.515 69.495 -108 70 C-108.495 69.01 -108.495 69.01 -109 68 C-112.33262917 68.38087191 -113.86859511 68.89159096 -116.5 71.0625 C-119.32466501 73.25161538 -120.52512531 73.39712854 -124 73 C-124 73.66 -124 74.32 -124 75 C-124.66 75 -125.32 75 -126 75 C-126.76471285 71.51630811 -126.9983724 68.9896919 -126.4375 65.4375 C-125.97700391 61.81931642 -126.35662785 60.19007534 -128 57 C-128.66 57 -129.32 57 -130 57 C-129.67 56.01 -129.34 55.02 -129 54 C-130.32 52.68 -131.64 51.36 -133 50 C-129.62537285 50.54723683 -127.91765 51.0549 -125 53 C-124.70351562 53.65484375 -124.40703125 54.3096875 -124.1015625 54.984375 C-122.637358 57.6635577 -121.17327311 58.13069076 -118.375 59.25 C-117.55773437 59.58515625 -116.74046875 59.9203125 -115.8984375 60.265625 C-115.27195312 60.50796875 -114.64546875 60.7503125 -114 61 C-114 61.66 -114 62.32 -114 63 C-113.34 63 -112.68 63 -112 63 C-112.39832031 62.38253906 -112.79664062 61.76507813 -113.20703125 61.12890625 C-117.42421257 54.38757261 -121.26699423 48.20515905 -120.75 40.0625 C-120 37 -120 37 -119 35 C-118.01 35.33 -117.02 35.66 -116 36 C-116.33 37.32 -116.66 38.64 -117 40 C-113.88183179 39.34619715 -113.88183179 39.34619715 -112.9375 36.96875 C-112.628125 36.1540625 -112.31875 35.339375 -112 34.5 C-111.0625 32.03125 -111.0625 32.03125 -110 30 C-109.01 29.67 -108.02 29.34 -107 29 C-106.34 29.33 -105.68 29.66 -105 30 C-104.34 29.34 -103.68 28.68 -103 28 C-100.8984375 28.09375 -100.8984375 28.09375 -98.375 28.5 C-93.30440803 29.12925095 -89.86622508 28.48461104 -85 27 C-83.33605325 26.65334443 -81.67056149 26.31323028 -80 26 C-79.505 26.99 -79.505 26.99 -79 28 C-79.99 28.495 -79.99 28.495 -81 29 C-80.26394531 28.96519531 -79.52789062 28.93039063 -78.76953125 28.89453125 C-69.31086391 28.63213757 -69.31086391 28.63213757 -65 32 C-61.71023192 33.09658936 -60.28696233 32.79953138 -57 32 C-57 31.34 -57 30.68 -57 30 C-58.918125 30.061875 -58.918125 30.061875 -60.875 30.125 C-63.0546875 30.1953125 -63.0546875 30.1953125 -65 30 C-65.99 29.01 -65.99 29.01 -67 28 C-64.87969449 24.81954174 -64.51737764 24.57531971 -61.125 23.5 C-58.7656986 22.74645887 -57.15163474 22.1231059 -55.21704102 20.55249023 C-52.65451341 18.75807188 -50.47981166 18.10269604 -47.45703125 17.31640625 C-46.38259766 17.02830078 -45.30816406 16.74019531 -44.20117188 16.44335938 C-43.08291016 16.15267578 -41.96464844 15.86199219 -40.8125 15.5625 C-33.22452309 13.58206028 -26.04802044 11.480378 -19 8 C-19.99 7.01 -19.99 7.01 -21 6 C-5.13510005 -2.36512907 -5.13510005 -2.36512907 0 0 Z M-12 5 C-12.99 5.66 -13.98 6.32 -15 7 C-13.35 6.67 -11.7 6.34 -10 6 C-10.66 5.67 -11.32 5.34 -12 5 Z M-82 34 C-81.19815586 36.14991567 -81.19815586 36.14991567 -79.1875 36.75 C-76.50171361 37.05694702 -75.2747813 36.38111722 -73 35 C-73.66 35 -74.32 35 -75 35 C-75 34.01 -75 33.02 -75 32 C-77.6465335 32 -79.5808163 32.98139634 -82 34 Z M24 73 C22.98888907 76.04913228 22.98888907 76.04913228 24 79 C24.66 79 25.32 79 26 79 C25.67 77.02 25.34 75.04 25 73 C24.67 73 24.34 73 24 73 Z M-82 90 C-81 92 -81 92 -81 92 Z M-84 110 C-80 111 -80 111 -80 111 Z " fill="#FF5435" transform="translate(137,7)"/>
<path d="M0 0 C3 1 3 1 3 1 Z " fill="#FF4B2B" transform="translate(39,115)"/>
<path d="" fill="#FF4A29" transform="translate(0,0)"/>
</svg>
