<?xml version="1.0" encoding="UTF-8"?>
<svg version="1.1" xmlns="http://www.w3.org/2000/svg" width="185" height="140">
<path d="M0 0 C2.34843305 4.31273578 3.28623956 7.74494962 2.1875 12.5625 C1.795625 13.366875 1.40375 14.17125 1 15 C1.66 15 2.32 15 3 15 C3.45375 14.484375 3.9075 13.96875 4.375 13.4375 C4.91125 12.963125 5.4475 12.48875 6 12 C8.1875 12.3125 8.1875 12.3125 10 13 C10 14.32 10 15.64 10 17 C10.99 17.33 11.98 17.66 13 18 C14.1875 21.0625 14.1875 21.0625 15 24 C18.63 24.33 22.26 24.66 26 25 C26.07427838 28.34252724 26.06546953 30.8035914 25 34 C25.38932856 36.14255793 25.38932856 36.14255793 26 38 C25.34 38 24.68 38 24 38 C25.36205262 42.45762676 27.16976887 44.38847877 31 47 C32.97711651 48.04451438 34.97250996 49.05698138 37 50 C37 51.32 37 52.64 37 54 C34.03 54.99 34.03 54.99 31 56 C31.33 61.94 31.66 67.88 32 74 C31.01 74 30.02 74 29 74 C28.01 75.98 28.01 75.98 27 78 C24.48916886 76.74458443 24.12874554 75.49936512 23 73 C23.43224209 75.59345253 23.88183116 77.76366233 25.0625 80.125 C26 82 26 82 26 85 C25.34 85 24.68 85 24 85 C22 82 22 82 22 78 C19.525 78.495 19.525 78.495 17 79 C16.67 77.68 16.34 76.36 16 75 C15.34 75 14.68 75 14 75 C14.33 78.3 14.66 81.6 15 85 C12.37886292 85 10.49064888 84.68707555 8 84 C8.99 85.32 9.98 86.64 11 88 C10.360625 88.433125 9.72125 88.86625 9.0625 89.3125 C6.73253997 90.91239177 6.73253997 90.91239177 6 94 C6.99 94 7.98 94 9 94 C9 95.65 9 97.3 9 99 C1.57142857 99.28571429 1.57142857 99.28571429 -2 97 C-2.1546875 98.0828125 -2.1546875 98.0828125 -2.3125 99.1875 C-3.0953879 102.39022322 -3.92601411 104.42539682 -6 107 C-10.77058788 108.81736681 -14.435713 107.49435176 -19.046875 105.88671875 C-21 105 -21 105 -23 103 C-19.3321148 101.03810791 -16.12751449 99.60698743 -12 99 C-12.33 98.34 -12.66 97.68 -13 97 C-18.21646629 96.66703407 -22.0087255 97.47226414 -26.88671875 99.34375 C-29 100 -29 100 -33 100 C-33 99.34 -33 98.68 -33 98 C-33.969375 98.639375 -34.93875 99.27875 -35.9375 99.9375 C-39.63816353 102.08992675 -42.84751335 102.537066 -47.08203125 102.7265625 C-49.23836534 102.83821327 -49.23836534 102.83821327 -51 105 C-53.47430875 105.12005522 -55.84396762 105.1401564 -58.3125 105.0625 C-62.72191754 104.96316934 -66.70830891 104.92915251 -71 106 C-71 106.99 -71 107.98 -71 109 C-72.2375 109.12375 -73.475 109.2475 -74.75 109.375 C-77.2949299 109.67967471 -78.93780713 109.96890357 -81.25 111.125 C-83 112 -83 112 -85.25 111.625 C-85.8275 111.41875 -86.405 111.2125 -87 111 C-86.67 110.67 -86.34 110.34 -86 110 C-87.32 110 -88.64 110 -90 110 C-90 109.34 -90 108.68 -90 108 C-91.98 108.495 -91.98 108.495 -94 109 C-94.33 108.34 -94.66 107.68 -95 107 C-93.02 106.01 -93.02 106.01 -91 105 C-91.99 105 -92.98 105 -94 105 C-94 104.01 -94 103.02 -94 102 C-89.38 100.35 -84.76 98.7 -80 97 C-80.66 97 -81.32 97 -82 97 C-83.66965451 96.68197057 -85.33678518 96.35015049 -87 96 C-87.33 94.35 -87.66 92.7 -88 91 C-88.99 91.495 -88.99 91.495 -90 92 C-90 92.66 -90 93.32 -90 94 C-91.32 93.67 -92.64 93.34 -94 93 C-94 92.34 -94 91.68 -94 91 C-97.18490007 90.7226499 -97.18490007 90.7226499 -100 93 C-105.53846154 96 -105.53846154 96 -109 96 C-109 95.01 -109 94.02 -109 93 C-109.66 92.67 -110.32 92.34 -111 92 C-111 91.34 -111 90.68 -111 90 C-112.485 89.505 -112.485 89.505 -114 89 C-116.12941757 85.72982302 -117.02903122 83.74029601 -116.875 79.8125 C-115.95640989 76.85988894 -115.15616867 76.06632831 -113 74 C-112.27802838 71.39388923 -112.27802838 71.39388923 -112 69 C-111.01 69 -110.02 69 -109 69 C-109.495 68.01 -109.495 68.01 -110 67 C-113.55780196 67.60990891 -116.6828589 68.5783681 -120 70 C-120 70.66 -120 71.32 -120 72 C-121.65 72 -123.3 72 -125 72 C-125 72.66 -125 73.32 -125 74 C-125.66 74 -126.32 74 -127 74 C-127.64794919 70.4002823 -128.08927225 67.49595695 -127.4375 63.875 C-126.9342577 60.56797919 -127.52468591 58.95062818 -129 56 C-129.66 56 -130.32 56 -131 56 C-130.67 55.01 -130.34 54.02 -130 53 C-130.99 52.34 -131.98 51.68 -133 51 C-132.67 50.34 -132.34 49.68 -132 49 C-129.23690461 50.08550176 -128.06006045 50.91547047 -126.3125 53.375 C-123.12700025 56.99097269 -119.43586414 58.30337675 -115 60 C-115 60.66 -115 61.32 -115 62 C-114.34 62 -113.68 62 -113 62 C-113.56589844 61.02160156 -114.13179687 60.04320312 -114.71484375 59.03515625 C-122.25220827 45.69235214 -122.25220827 45.69235214 -122 38 C-120.9921875 35.76171875 -120.9921875 35.76171875 -120 34 C-119.34 34 -118.68 34 -118 34 C-118 35.65 -118 37.3 -118 39 C-116.0261062 38.85001984 -116.0261062 38.85001984 -114 38 C-112.9712226 35.94566049 -112.9712226 35.94566049 -112.4375 33.5 C-111.80859375 31.03125 -111.80859375 31.03125 -111 29 C-110.01 28.67 -109.02 28.34 -108 28 C-107.34 28.33 -106.68 28.66 -106 29 C-105.34 28.34 -104.68 27.68 -104 27 C-102.07421875 27.12890625 -102.07421875 27.12890625 -99.6875 27.5625 C-93.11964548 28.4087243 -87.30458326 26.74907717 -81 25 C-80.505 25.99 -80.505 25.99 -80 27 C-80.99 27 -81.98 27 -83 27 C-83 27.66 -83 28.32 -83 29 C-81.9790625 28.7525 -81.9790625 28.7525 -80.9375 28.5 C-75.91993923 27.6459471 -71.42404768 27.16860949 -67 30 C-66.34 29.34 -65.68 28.68 -65 28 C-66.485 27.505 -66.485 27.505 -68 27 C-64.76445961 24.22667966 -61.95428174 22.52087759 -58 21 C-57.18982422 20.30777344 -57.18982422 20.30777344 -56.36328125 19.6015625 C-53.04876808 17.35536349 -49.58406493 16.49436833 -45.75 15.4375 C-44.66138672 15.12522461 -44.66138672 15.12522461 -43.55078125 14.80664062 C-40.01005905 13.7999647 -36.46284469 12.86383223 -32.8828125 12.0078125 C-29.17789479 11.0939389 -25.67777733 9.83771224 -22.125 8.4375 C-21.01382813 8.00308594 -19.90265625 7.56867187 -18.7578125 7.12109375 C-16.09853953 6.08154449 -16.09853953 6.08154449 -14 5 C-16.64 5.33 -19.28 5.66 -22 6 C-17.11047982 0.54989789 -6.64511779 -4.54665954 0 0 Z M-64 28 C-62.71034824 29.37562854 -61.37310707 30.70766393 -60 32 C-59.34 32 -58.68 32 -58 32 C-58 31.01 -58 30.02 -58 29 C-60.97 28.505 -60.97 28.505 -64 28 Z M-81 31 C-81.66 32.32 -82.32 33.64 -83 35 C-79.01803543 36.05404945 -76.01804691 35.84098656 -72 35 C-74.72606304 31.71185401 -74.72606304 31.71185401 -78.75 30.75 C-79.86375 30.87375 -79.86375 30.87375 -81 31 Z M29 53 C30 55 30 55 30 55 Z M-83 89 C-82 91 -82 91 -82 91 Z M-34 92 C-30 93 -30 93 -30 93 Z " fill="#FF5939" transform="translate(138,8)"/>
<path d="M0 0 C3.63 0.33 7.26 0.66 11 1 C6.8204355 3.78637633 4.85331323 2.79562512 0 2 C0 1.34 0 0.68 0 0 Z " fill="#FF5432" transform="translate(40,103)"/>
<path d="M0 0 C2 1 2 1 2 1 Z " fill="#FF5134" transform="translate(40,115)"/>
<path d="" fill="#FF542E" transform="translate(0,0)"/>
<path d="" fill="#FF4E3B" transform="translate(0,0)"/>
</svg>
